<svg width="131" height="16" viewBox="0 0 131 16" fill="none" xmlns="http://www.w3.org/2000/svg">
<g clip-path="url(#clip0_69_2586)">
<path d="M67.7824 5.83784C67.7824 5.65766 67.6216 5.5015 67.436 5.5015H57.6627V0.336336C57.6627 0.156156 57.5018 0 57.3163 0H53.4812C53.2956 0 53.1348 0.156156 53.1348 0.336336V8.45646V15.6036C53.1348 15.7838 53.2956 15.9399 53.4812 15.9399H53.5925H67.4236C67.6092 15.9399 67.77 15.7838 67.77 15.6036V14.0541V12.0721V8.13213V5.84985L67.7824 5.83784ZM57.4771 9.71772H63.4401V11.7357H57.4771V9.71772Z" fill="white"/>
<path d="M85.1652 0H71.1608C70.9629 0 70.8145 0.144144 70.8145 0.336336V3.87988C70.8145 3.87988 70.8144 3.96396 70.8392 4V15.5796C70.8392 15.7718 70.9877 15.9279 71.1856 15.9399H74.8351C75.0331 15.9399 75.1815 15.7718 75.1815 15.5796V4.21622H85.1652C85.3631 4.21622 85.5116 4.07207 85.5116 3.87988V0.336336C85.5116 0.144144 85.3508 0 85.1652 0Z" fill="white"/>
<path d="M89.073 4.21622H92.9081C93.0936 4.21622 93.2545 4.06006 93.2545 3.87988V0.336336C93.2545 0.156156 93.0936 0 92.9081 0H89.073C88.8874 0 88.7266 0.156156 88.7266 0.336336V3.87988C88.7266 4.06006 88.8874 4.21622 89.073 4.21622Z" fill="white"/>
<path d="M92.9081 5.50146H89.073C88.8874 5.50146 88.7266 5.65762 88.7266 5.8378V15.6036C88.7266 15.7837 88.8874 15.9399 89.073 15.9399H92.9081C93.0936 15.9399 93.2545 15.7837 93.2545 15.6036V5.8378C93.2545 5.65762 93.0936 5.50146 92.9081 5.50146Z" fill="white"/>
<path d="M130.641 5.5015H126.645V0.444445C126.67 0.228228 126.521 0.036036 126.298 0H122.649C122.426 0.036036 122.278 0.228228 122.302 0.444445V5.5015H118.715V0.336336C118.727 0.156156 118.566 0 118.381 0H114.546C114.36 0 114.199 0.156156 114.199 0.336336V7.36336V15.6036C114.199 15.7958 114.36 15.9399 114.558 15.9399H118.368C118.566 15.9399 118.727 15.7958 118.727 15.6036V9.70571H126.657V15.6036C126.657 15.7838 126.818 15.9399 127.004 15.9399H130.653C130.839 15.9399 130.999 15.7838 130.999 15.6036V5.83784C130.999 5.65766 130.839 5.5015 130.653 5.5015H130.641Z" fill="white"/>
<path d="M110.834 11.7237H100.801V4.21622H110.649C110.834 4.21622 110.995 4.06006 110.995 3.87988V0.336336C110.995 0.156156 110.834 0 110.649 0H96.8054C96.6198 0 96.459 0.156156 96.459 0.336336V15.5796C96.459 15.7718 96.6074 15.9279 96.8054 15.9399H100.455H110.834C111.02 15.9399 111.181 15.7838 111.181 15.6036V12.0601C111.181 11.8799 111.02 11.7237 110.834 11.7237Z" fill="white"/>
<path d="M49.8202 0H45.985C45.7995 0 45.6386 0.156156 45.6386 0.336336V5.5015H35.6921C35.5065 5.5015 35.3457 5.65766 35.3457 5.83784V15.6036C35.3457 15.7838 35.5065 15.9399 35.6921 15.9399H49.5232H49.7954C49.9934 15.9399 50.1542 15.7958 50.1542 15.6036V7.36336V0.336336C50.1666 0.156156 50.0181 0 49.8202 0ZM39.688 9.70571H45.6386V11.7237H39.688V9.70571Z" fill="white"/>
<path d="M11.7404 10.3904H14.3631C14.5487 10.3904 14.7095 10.2342 14.7095 10.0541V6.46246V3.92793V0.336336C14.7095 0.156156 14.5611 0 14.3631 0H0.346397C0.197941 0 0.074228 0.0840841 0.0247427 0.204204C0.0123713 0.24024 0 0.288288 0 0.324324V10.0541V15.6036C0 15.7838 0.160827 15.9399 0.346397 15.9399H4.04542C4.23099 15.9399 4.39182 15.7958 4.39182 15.6036V10.3904H6.73L10.2435 15.5676C10.4043 15.8919 10.7754 16.0601 11.1342 15.964H14.4868C14.7466 15.8078 14.8332 15.4595 14.66 15.2072L11.7404 10.3784V10.3904ZM4.39182 4.26426H10.3177V6.12613H4.39182V4.26426Z" fill="white"/>
<path d="M20.1042 4.21622H32.1786C32.3642 4.21622 32.525 4.06006 32.525 3.87988V0.336336C32.525 0.156156 32.3766 0 32.1786 0H20.1042C19.9186 0 19.7578 0.156156 19.7578 0.336336V3.87988C19.7578 4.06006 19.9186 4.21622 20.1042 4.21622Z" fill="white"/>
<path d="M32.1786 11.7236H20.1042C19.9129 11.7236 19.7578 11.8742 19.7578 12.06V15.6035C19.7578 15.7893 19.9129 15.9398 20.1042 15.9398H32.1786C32.3699 15.9398 32.525 15.7893 32.525 15.6035V12.06C32.525 11.8742 32.3699 11.7236 32.1786 11.7236Z" fill="white"/>
<path d="M30.1611 9.56152V6.01798C30.1611 5.82579 30.0002 5.68164 29.8147 5.68164H18.0124C17.8268 5.68164 17.666 5.8378 17.666 6.01798V9.56152C17.666 9.7417 17.8268 9.89786 18.0124 9.89786H29.8023C29.9879 9.89786 30.1487 9.7417 30.1487 9.56152H30.1611Z" fill="white"/>
</g>
<defs>
<clipPath id="clip0_69_2586">
<rect width="131" height="16" fill="white"/>
</clipPath>
</defs>
</svg>
